<svg width="376" height="39" viewBox="0 0 376 39" fill="none" xmlns="http://www.w3.org/2000/svg">
<mask id="mask0_69_2951" style="mask-type:luminance" maskUnits="userSpaceOnUse" x="0" y="-1" width="377" height="40">
<path d="M0 -0.135752H376.028V38.8671H0V-0.135752Z" fill="white"/>
</mask>
<g mask="url(#mask0_69_2951)">
<path d="M232.99 0.417046C150.562 2.32967 71.7441 5.90267 33.7441 9.55869C9.4807 11.8864 0 13.799 0 16.2098C0 17.206 1.04312 17.206 6.50564 16.2098C29.405 11.9694 83.9561 8.56247 183.982 5.40456C245.767 3.40892 363.949 3.40892 358.727 5.40456C356.316 6.31777 336.312 7.56624 265.932 11.2223C129.832 18.2884 106.05 20.2841 106.05 24.6043C106.05 27.5993 110.951 28.5955 138.992 31.1723C148.874 32.0855 157.308 33.168 157.712 33.5831C158.114 33.9982 154.336 34.9114 149.275 35.6617C136.1 37.7404 134.813 37.9894 135.375 38.4876C136.341 39.4838 153.774 37.8234 160.12 36.0768C162.613 35.4127 163.175 34.9114 162.934 33.417C162.61 30.8402 158.996 30.0931 137.464 27.8484C115.45 25.6037 113.04 25.0225 121.718 24.2722C141.241 22.5288 182.377 19.952 251.47 16.2098C347.799 11.0562 365.556 9.81094 373.028 7.8153C375.358 7.14795 376 6.56682 376 5.07248C376 2.57873 374.716 2.24665 361.618 1.16421C347.317 0.0849707 268.824 -0.416336 232.99 0.417046Z" fill="#C596FF"/>
</g>
</svg>
