<svg width="29" height="29" viewBox="0 0 29 29" fill="none" xmlns="http://www.w3.org/2000/svg">
<path d="M14.5 29C11.6322 29 8.82875 28.1496 6.44424 26.5563C4.05972 24.963 2.20122 22.6984 1.10375 20.0489C0.00628262 17.3994 -0.280866 14.4839 0.27862 11.6712C0.838105 8.85847 2.2191 6.27482 4.24696 4.24696C6.27482 2.2191 8.85847 0.838106 11.6712 0.27862C14.4839 -0.280865 17.3994 0.00628281 20.0489 1.10375C22.6984 2.20122 24.963 4.05973 26.5563 6.44424C28.1496 8.82875 29 11.6322 29 14.5C29 16.4042 28.6249 18.2897 27.8963 20.0489C27.1676 21.8081 26.0995 23.4066 24.753 24.753C23.4066 26.0995 21.8081 27.1676 20.0489 27.8963C18.2897 28.6249 16.4042 29 14.5 29ZM11.6 7.97501L11.6 21.025L20.3 14.5L11.6 7.97501Z" fill="#D5B4FF"/>
</svg>
