<svg width="566" height="271" viewBox="0 0 566 271" fill="none" xmlns="http://www.w3.org/2000/svg">
<mask id="mask0_364_304" style="mask-type:luminance" maskUnits="userSpaceOnUse" x="19" y="17" width="534" height="254">
<path d="M19.646 17.5965H552.459V270.785H19.646V17.5965Z" fill="white"/>
</mask>
<g mask="url(#mask0_364_304)">
<path d="M538.992 52.9106C538.418 50.0345 537.269 47.7345 536.12 44.8584C527.501 17.8281 499.918 17.8281 473.486 17.8281H465.442C449.351 17.8281 418.899 17.8281 382.123 18.4043C352.817 18.4043 319.488 18.9781 286.162 18.9781C252.257 18.9781 218.931 18.4043 190.198 18.4043C153.425 18.4043 122.97 17.8281 106.879 17.8281H98.8355C72.4032 17.8281 44.8219 17.8281 36.2007 44.8584C34.4783 47.1584 33.3293 50.0345 32.7536 52.9106C16.0893 116.745 15.5159 149.525 30.4556 169.079C44.2462 186.907 67.8048 189.207 86.7672 189.207C103.432 189.207 122.97 189.207 144.23 189.781H149.402C150.551 208.759 156.872 225.437 168.364 238.666C187.327 259.368 218.355 270.87 259.154 270.87H269.497C273.52 270.87 277.54 270.87 282.139 270.87H290.182C294.205 270.87 298.803 270.87 302.25 270.87H312.594C353.39 270.87 384.994 259.944 403.383 238.666C414.876 225.437 421.77 209.335 422.346 189.781H427.517C448.778 189.781 468.314 189.207 484.978 189.207C503.941 189.207 527.501 186.907 541.292 169.079C556.232 148.951 555.656 116.745 538.992 52.9106Z" fill="#26222C"/>
</g>
<path d="M399.361 230.039C410.853 217.387 417.174 200.708 417.174 181.154C417.174 180.004 417.747 179.43 418.899 179.43H427.517C448.778 179.43 468.314 178.854 484.978 178.854C502.792 178.854 524.628 176.554 537.269 160.452C551.633 142.048 550.484 110.994 534.396 48.8834C526.926 21.8532 499.918 21.8532 474.061 21.8532H466.016C449.927 21.8532 419.472 21.8532 382.696 22.4293C353.39 22.4293 320.064 23.0031 286.735 23.0031C252.833 23.0031 219.504 22.4293 190.774 22.4293C153.998 22.4293 123.543 21.8532 107.454 21.8532H99.4088C72.9765 21.8532 45.9709 21.8532 39.0744 49.4573C21.8367 111.568 20.6877 142.624 35.0517 161.026C47.6933 177.128 69.5294 179.43 87.3428 179.43C104.007 179.43 123.543 179.43 144.803 180.004H153.425C154.574 180.004 155.147 180.58 155.147 181.73C155.723 201.282 161.468 217.387 172.96 230.612C190.774 250.167 220.653 261.093 259.727 261.093H270.071C274.093 261.093 278.116 261.093 282.139 261.093H290.182C294.205 261.093 298.228 261.093 302.25 261.093H312.594C351.668 259.943 381.547 249.591 399.361 230.039Z" fill="#8032E0"/>
<path d="M523.479 51.7593C518.307 31.6288 498.196 32.7811 465.443 32.7811C436.71 32.7811 362.012 33.355 286.162 33.355C209.737 33.355 135.036 32.7811 106.306 32.7811C73.5525 32.7811 53.441 31.6288 48.2693 51.7593C23.5594 146.648 34.4786 167.928 86.7674 167.928C108.604 167.928 136.185 168.502 165.491 168.502C159.17 224.862 200.542 249.016 259.154 249.016C262.601 249.016 266.048 249.016 269.498 249.016C274.669 249.016 279.841 249.016 285.586 249.016C291.331 249.016 296.503 249.016 301.675 249.016C305.124 249.016 308.571 249.016 312.018 249.016C370.055 249.016 411.427 224.862 405.682 168.502C435.561 168.502 462.569 167.928 484.405 167.928C537.27 168.502 548.186 146.648 523.479 51.7593Z" fill="#D5B4FF"/>
<path d="M290.181 251.319C287.31 251.319 284.436 251.319 281.563 251.319C277.54 251.319 273.519 251.319 269.497 251.319C266.047 251.319 262.6 251.319 259.153 251.319C222.377 251.319 194.796 242.117 178.707 224.289C166.639 211.063 161.467 192.658 163.765 170.804H145.952C124.118 170.804 103.431 170.23 86.7665 170.23C63.208 170.23 49.9907 165.628 41.9475 155.852C29.8792 140.324 31.6039 110.42 46.5436 52.3355C51.7154 31.6313 71.8268 31.6313 101.709 31.6313H105.729C121.82 31.6313 152.273 31.6313 189.048 32.2074C218.354 32.2074 251.683 32.7836 285.01 32.7836C318.914 32.7836 351.667 32.2074 380.973 32.2074C417.747 32.2074 448.202 31.6313 464.293 31.6313H468.313C498.195 31.6313 518.306 31.6313 523.478 52.3355C538.991 110.42 540.142 140.324 528.074 155.852C520.029 166.204 506.814 170.23 483.255 170.23C466.015 170.23 445.904 170.23 424.067 170.804H406.256C408.554 192.658 403.383 210.487 391.314 224.289C375.226 242.117 347.644 251.319 310.869 251.319C307.421 251.319 303.972 251.319 300.525 251.319C298.227 251.319 294.204 251.319 290.181 251.319ZM286.161 247.867C291.906 247.867 297.078 247.867 302.25 247.867C305.697 247.867 309.144 247.867 312.593 247.867C348.218 247.867 375.226 238.667 390.165 221.989C401.658 208.76 406.83 190.932 404.532 169.654V167.93H425.792C447.628 167.93 468.313 167.354 484.977 167.354C507.387 167.354 520.029 163.328 526.925 154.128C538.418 139.75 536.693 110.42 521.753 53.4855C517.157 34.5074 499.344 34.5074 470.038 34.5074H465.442C449.351 34.5074 418.898 34.5074 382.122 34.5074C352.816 34.5074 319.487 35.0835 286.161 35.0835C252.257 35.0835 218.93 35.0835 189.624 34.5074C152.848 34.5074 122.393 34.5074 106.305 34.5074H102.282C72.4025 34.5074 54.5891 34.5074 49.9907 52.3355C35.051 109.27 33.3287 138.6 44.8212 152.976C51.7154 162.178 64.357 166.204 86.7665 166.204C104.007 166.204 124.118 166.204 145.952 166.78H167.215V168.504C164.914 190.358 169.513 208.187 181.579 220.839C197.094 238.091 223.526 246.717 259.153 246.717C262.6 246.717 266.047 246.717 269.497 246.717C275.242 247.867 280.414 247.867 286.161 247.867Z" fill="#26222C"/>
<path d="M497.62 66.7127C497.62 66.1366 497.046 66.1366 497.046 65.5627C494.746 62.6866 491.299 55.2106 487.852 54.6345C486.703 54.6345 484.978 54.6345 483.255 54.6345C476.935 54.6345 470.038 54.6345 463.717 54.6345C450.5 54.6345 436.709 54.6345 423.494 54.6345C422.919 54.6345 422.345 54.6345 421.77 54.6345C421.196 54.6345 421.196 54.6345 421.196 54.6345H420.621H383.845C382.696 54.6345 381.547 55.7844 381.547 56.9344C381.547 58.0867 381.547 59.2367 381.547 59.8105C380.398 58.0867 378.673 54.6345 376.375 54.6345H338.45C337.301 54.6345 336.152 55.7844 336.152 56.9344C336.152 62.1105 337.301 67.8627 336.152 72.4626C333.278 70.1626 331.556 66.1366 328.682 63.2605C325.809 60.9605 322.935 58.6605 319.488 57.5106C310.869 53.4845 301.674 52.9107 292.482 52.9107C283.861 52.9107 274.669 54.0606 266.623 57.5106C263.176 58.6605 260.302 60.9605 257.429 63.2605C255.131 65.5627 253.406 69.0127 251.108 70.7365C248.237 67.8627 247.085 63.8366 244.214 61.5367C242.489 59.8105 239.615 58.6605 237.317 57.5106C229.847 55.2106 221.802 55.2106 214.332 55.2106H163.766C162.617 55.2106 161.468 56.3606 161.468 57.5106C161.468 63.2605 161.468 69.0127 161.468 75.3387C160.894 73.0388 160.894 70.7365 160.319 68.4365C159.745 67.2865 159.17 66.7127 158.594 65.5627C156.872 63.2605 155.722 61.5367 153.998 59.2367C152.849 58.0867 151.7 54.6345 149.975 54.6345H84.4689C83.3199 54.6345 82.1708 55.2106 82.1708 56.3606L68.9535 127.097C68.9535 127.671 68.9535 128.247 69.5292 128.823C69.5292 128.823 69.5292 128.823 70.1049 128.823C71.2539 132.273 75.2743 136.299 77.5747 139.173C78.1481 139.749 78.1481 139.749 78.7238 140.323C81.0218 141.475 86.7669 140.899 89.0673 140.899C93.0877 140.899 97.6862 140.899 101.709 140.899C107.454 140.899 113.199 140.899 118.371 140.899C119.52 140.899 120.669 139.749 120.669 138.599L121.245 130.547C121.245 130.547 121.245 130.547 121.82 131.123C124.118 132.847 126.99 136.873 127.566 139.173C128.141 140.323 128.715 140.899 129.864 140.899H169.513H170.086H170.662H199.968V141.475V181.731C199.968 188.631 200.541 196.107 204.564 202.433C209.736 210.485 215.481 219.688 224.102 223.714C232.721 227.737 242.489 227.737 251.684 227.737C270.07 227.737 281.563 224.864 287.884 217.388L290.758 221.411C291.331 222.561 291.907 223.138 293.056 224.288C294.78 226.014 297.652 225.438 299.376 226.014C302.25 226.588 305.697 226.588 308.571 227.164C314.316 227.737 320.637 228.314 326.384 228.314C356.264 228.314 368.332 220.838 368.332 201.86C368.332 194.383 364.883 186.907 360.286 181.155C360.286 181.155 360.286 181.155 360.286 180.581C360.86 180.581 361.435 181.155 361.435 181.155C362.011 181.731 363.16 181.731 363.733 181.155C364.309 180.581 364.883 180.005 364.883 178.855C364.883 175.405 364.883 171.953 365.458 169.079C365.458 166.203 365.458 163.903 366.032 161.027C366.032 158.727 367.181 154.701 366.032 152.401C366.032 151.825 365.458 151.251 364.883 150.675C363.16 148.375 361.435 146.075 360.286 144.349C359.137 143.199 357.988 139.749 356.264 139.173C348.218 139.173 339.026 138.023 329.256 138.023C335.577 134.573 339.599 129.397 343.049 122.497C346.496 125.947 348.794 131.123 352.241 134.573C354.539 136.873 357.988 138.599 360.86 139.749C368.905 143.199 378.673 143.775 387.294 143.775C418.898 143.775 430.389 134.573 430.389 109.269V98.9167H433.262V128.247C433.262 129.973 435.56 132.273 436.709 133.423C438.434 135.723 439.583 138.023 441.308 139.749C443.03 142.049 445.331 141.475 447.629 141.475C451.076 141.475 454.523 141.475 457.972 141.475C464.866 141.475 472.336 141.475 479.233 141.475C479.806 141.475 480.382 141.475 480.955 141.475C482.104 141.475 483.255 140.323 483.255 139.173V98.9167H495.321C496.47 98.9167 497.62 97.7668 497.62 96.6168C497.62 92.5907 497.62 87.9908 497.62 83.9647C498.195 79.3648 499.918 71.3126 497.62 66.7127ZM290.758 146.649C290.758 146.075 290.182 146.075 290.182 145.499C290.182 144.925 289.608 144.925 289.608 144.349C289.608 143.775 289.033 143.775 289.033 143.199C289.033 143.199 289.033 142.625 288.459 142.625C290.758 142.625 292.482 143.199 295.354 143.199C293.056 144.925 291.907 145.499 290.758 146.649ZM258.578 126.521C259.153 127.097 259.153 127.097 259.153 127.671C259.153 128.247 259.727 128.247 259.727 128.823C259.727 129.397 260.302 129.397 260.302 129.973C263.75 134.573 268.348 138.023 274.669 140.323H247.085C245.936 140.323 244.787 141.475 244.787 142.625V146.075C244.787 145.499 244.214 145.499 244.214 144.925C244.214 144.349 243.638 144.349 243.638 143.775C243.638 143.199 243.065 143.199 243.065 142.625C243.065 142.049 242.489 142.049 242.489 141.475C242.489 140.899 241.916 140.899 241.916 140.323C251.684 139.173 257.429 135.149 258.578 126.521Z" fill="#8032E0"/>
<path d="M495.321 60.9601C495.321 60.3863 494.745 60.3863 494.745 59.8102C492.447 56.9341 489 49.458 485.553 48.8842C484.404 48.8842 482.68 48.8842 480.955 48.8842C474.634 48.8842 467.74 48.8842 461.419 48.8842C448.202 48.8842 434.411 48.8842 421.196 48.8842C420.62 48.8842 420.047 48.8842 419.471 48.8842C418.896 48.8842 418.896 48.8842 418.896 48.8842H418.322H381.547C380.398 48.8842 379.249 50.0342 379.249 51.1842C379.249 52.3342 379.249 53.4841 379.249 54.0603C378.1 52.3342 376.375 48.8842 374.077 48.8842H336.152C333.854 49.458 333.278 50.608 333.278 51.7603C333.278 56.9341 334.427 62.6863 333.278 67.2862C330.407 64.9862 328.682 60.9601 325.808 58.0864C322.935 55.7841 320.063 53.4841 316.614 52.3342C307.995 48.3081 298.803 47.7342 289.608 47.7342C280.989 47.7342 271.795 48.8842 263.749 52.3342C260.302 53.4841 257.428 55.7841 254.557 58.0864C252.257 60.3863 250.534 63.8363 248.236 65.5624C245.363 62.6863 244.213 58.6602 241.34 56.3602C239.615 54.6341 236.744 53.4841 234.443 52.3342C226.973 50.0342 218.93 50.0342 211.46 50.0342H160.894C159.745 50.0342 158.594 51.1842 158.594 52.3342C158.594 58.0864 158.594 63.8363 158.594 70.1623C158.02 67.8623 158.02 65.5624 157.445 63.2601C156.871 62.1101 156.296 61.5363 155.722 60.3863C153.997 58.0864 152.848 56.3602 151.124 54.0603C149.975 52.9103 148.826 49.458 147.103 49.458H82.7462C81.5948 49.458 80.4458 50.0342 80.4458 51.1842L67.2308 121.921C67.2308 122.497 67.2308 123.071 67.8042 123.647C67.8042 123.647 67.8042 123.647 68.3799 123.647C69.5289 127.097 73.5516 131.123 75.8497 133.997C76.4254 134.573 76.4254 134.573 76.9987 135.149C79.2968 136.299 85.0442 135.723 87.3423 135.723C91.365 135.723 95.9612 135.723 99.9839 135.723C105.729 135.723 111.477 135.723 116.648 135.723C117.797 135.723 118.946 134.573 118.946 133.423L119.52 125.371C119.52 125.371 119.52 125.371 120.095 125.947C122.393 127.67 125.267 131.697 125.84 133.997C126.416 135.149 126.992 135.723 128.141 135.723H167.788H168.364H168.937H198.243V136.299V176.555C198.243 183.455 198.819 190.931 202.839 197.257C208.011 205.309 213.758 214.511 222.377 218.537C230.996 222.561 240.764 222.561 249.959 222.561C268.348 222.561 279.84 219.687 286.161 212.211L289.033 216.235C289.608 217.387 290.182 217.961 291.331 219.111C293.055 220.837 295.929 220.261 297.651 220.837C300.525 221.411 303.972 221.411 306.846 221.987C312.593 222.561 318.914 223.137 324.659 223.137C354.539 223.137 366.607 215.661 366.607 196.683C366.607 189.207 363.16 181.731 358.561 175.979C358.561 175.979 358.561 175.979 358.561 175.405C359.137 175.405 359.71 175.979 359.71 175.979C360.286 176.555 361.435 176.555 362.011 175.979C362.584 175.405 363.16 174.829 363.16 173.679C363.16 170.229 363.16 166.779 363.733 163.903C363.733 161.027 363.733 158.727 364.309 155.851C364.309 153.551 365.458 149.525 364.309 147.225C364.309 146.649 363.733 146.075 363.16 145.499C361.435 143.199 359.71 140.899 358.561 139.173C357.412 138.023 356.263 134.573 354.539 133.997C345.92 132.273 336.728 131.123 326.957 131.123C333.278 127.67 337.301 122.497 340.748 115.595C344.197 119.044 346.495 124.221 349.943 127.67C352.241 129.973 355.69 131.697 358.561 132.847C366.607 138.023 376.375 138.023 384.994 138.023C416.598 138.023 428.09 128.823 428.09 103.519V93.1665H430.964V122.497C430.964 124.221 433.262 126.521 434.411 127.67C436.136 129.973 437.285 132.273 439.01 133.997C440.732 136.299 443.03 135.723 445.33 135.723C448.777 135.723 452.225 135.723 455.672 135.723C462.568 135.723 470.038 135.723 476.934 135.723C477.508 135.723 478.083 135.723 478.657 135.723C479.806 135.723 480.955 134.573 480.955 133.423V93.1665H493.023C494.172 93.1665 495.321 92.0165 495.321 90.8665C495.321 86.8405 495.321 82.2382 495.321 78.2145C496.47 73.6122 497.619 65.5624 495.321 60.9601ZM288.459 140.899C288.459 140.323 287.883 140.323 287.883 139.749C287.883 139.173 287.31 139.173 287.31 138.599C287.31 138.023 286.734 138.023 286.734 137.449C286.734 137.449 286.734 136.873 286.161 136.873C288.459 136.873 290.182 137.449 293.055 137.449C291.331 139.173 289.608 139.749 288.459 140.899ZM256.279 120.771C256.855 121.344 256.855 121.344 256.855 121.921C256.855 122.497 257.428 122.497 257.428 123.071C257.428 123.647 258.004 123.647 258.004 124.221C261.451 128.823 266.047 132.273 272.368 134.573H244.787C243.638 134.573 242.489 135.723 242.489 136.873V140.323C242.489 139.749 241.915 139.749 241.915 139.173C241.915 138.599 241.34 138.599 241.34 138.023C241.34 137.449 240.764 137.449 240.764 136.873C240.764 136.299 240.191 136.299 240.191 135.723C240.191 135.149 239.615 135.149 239.615 134.573C249.385 132.847 255.13 128.823 256.279 120.771Z" fill="#26222C"/>
<path d="M325.235 165.627C324.086 165.627 322.935 164.477 322.935 163.327C322.935 157.001 330.407 157.001 334.427 157.001C340.748 157.001 346.495 158.151 351.092 159.877L351.667 139.749C343.048 138.022 333.854 137.449 324.086 137.449C293.055 137.449 286.734 145.499 286.734 158.727C286.734 170.229 291.906 178.279 316.614 178.279C317.765 178.279 318.914 179.431 318.914 180.581C318.914 186.907 311.444 186.907 306.846 186.907C299.376 186.907 292.482 185.757 287.883 183.455L287.31 204.735C297.651 206.459 307.422 207.035 317.189 207.035C347.644 207.035 353.965 198.983 353.965 185.757C353.965 171.379 345.346 165.627 325.235 165.627Z" fill="white"/>
<path d="M280.413 139.172H248.809V175.404C248.809 179.43 248.809 185.18 242.488 185.18C236.168 185.18 235.594 179.43 235.594 175.404V139.172H202.839V177.128C202.839 199.558 212.033 207.034 241.915 207.034C271.219 207.034 280.413 200.132 280.413 177.128V139.172Z" fill="white"/>
<path d="M84.4693 54.0611L72.4033 120.195H106.305L106.879 112.145C106.879 110.995 108.03 109.845 109.179 109.845H118.947C120.096 109.845 121.245 110.995 121.245 112.145L121.821 120.195H156.296L144.23 54.0611H84.4693ZM119.52 94.8911C118.947 95.4672 118.371 95.4672 117.798 95.4672H110.902C110.328 95.4672 109.753 94.8911 109.179 94.8911C108.603 94.3173 108.603 93.7411 108.603 93.1673L110.328 74.1892C110.328 73.0392 111.477 71.8892 112.626 71.8892H116.073C117.222 71.8892 118.371 73.0392 118.371 74.1892L120.096 93.1673C120.096 93.7411 120.096 94.3173 119.52 94.8911Z" fill="white"/>
<path d="M414.876 54.0611H383.272V90.2912C383.272 94.3173 383.272 100.067 376.951 100.067C370.63 100.067 370.63 93.7411 370.63 90.2912V54.0611H337.877V92.0173C337.877 114.445 347.069 121.921 376.951 121.921C406.257 121.921 415.449 115.019 415.449 92.0173V54.0611H414.876Z" fill="white"/>
<path d="M289.609 121.92C318.915 121.92 330.981 111.568 330.981 86.8404C330.981 62.11 318.339 51.7602 289.609 51.7602C260.303 51.7602 248.237 62.11 248.237 86.8404C248.237 111.568 260.303 121.92 289.609 121.92ZM289.609 73.6121C296.503 73.6121 296.503 81.6643 296.503 86.8404C296.503 92.0164 296.503 100.066 289.609 100.066C282.712 100.066 282.712 92.0164 282.712 86.8404C282.712 81.6643 282.712 73.6121 289.609 73.6121Z" fill="white"/>
<path d="M210.885 54.0611H163.192V120.195H212.61C239.615 120.195 244.214 116.171 244.214 104.093C244.214 94.8911 240.765 91.4412 230.997 89.715C229.848 89.715 229.274 88.5651 229.274 87.4151C229.274 86.2651 229.848 85.1151 230.997 84.5413C239.042 82.8152 241.916 78.7891 241.916 70.7392C241.34 58.661 237.317 54.0611 210.885 54.0611ZM199.968 108.693H198.244C197.095 108.693 195.946 107.543 195.946 106.393V94.8911C195.946 93.7411 197.095 92.5911 198.244 92.5911H199.968C203.991 92.5911 209.16 93.1673 209.16 100.643C209.16 107.543 203.991 108.693 199.968 108.693ZM199.968 82.239H198.244C197.095 82.239 195.946 81.089 195.946 79.9391V68.437C195.946 67.287 197.095 66.137 198.244 66.137H199.968C203.991 66.137 209.16 66.7132 209.16 74.1892C209.16 81.089 203.991 82.239 199.968 82.239Z" fill="white"/>
<path d="M468.89 120.194V79.938C468.89 78.788 470.039 77.6381 471.188 77.6381H483.256V54.6339H421.77V77.6381H433.839C434.988 77.6381 436.137 78.788 436.137 79.938V120.194H468.89Z" fill="white"/>
<path d="M57.4627 5.17508L62.6321 17.2533C64.3568 21.2794 67.2306 24.1532 71.2533 25.8793L83.3193 30.4792C87.342 32.2054 87.342 37.9553 83.3193 39.6814L71.2533 44.2813C67.2306 46.0074 64.3568 48.8835 62.6321 52.9096L57.4627 64.9855C55.738 69.0116 49.9905 69.0116 48.2681 64.9855L43.6697 52.9096C41.9473 48.8835 39.0736 46.0074 35.0508 44.2813L22.9849 39.6814C18.9621 37.9553 18.9621 32.2054 22.9849 30.4792L35.0508 25.8793C39.0736 24.1532 41.9473 20.7033 43.6697 17.2533L48.2681 5.17508C49.9905 0.575169 55.738 0.575169 57.4627 5.17508Z" fill="#D5B4FF"/>
<mask id="mask1_364_304" style="mask-type:luminance" maskUnits="userSpaceOnUse" x="17" y="0" width="72" height="71">
<path d="M17.8553 0H88.2606V70.1463H17.8553V0Z" fill="white"/>
</mask>
<g mask="url(#mask1_364_304)">
<path d="M52.8642 69.5864C49.9905 69.5864 47.6924 67.8626 46.5434 65.5627L41.9473 53.4844C40.7983 50.0345 37.9245 47.1584 34.4774 46.0084L22.4092 40.8323C20.1111 40.2585 18.3864 37.3824 18.3864 35.0825C18.3864 32.7825 20.1111 29.9064 22.4092 28.7564L34.4774 23.5804C37.9245 22.4304 40.7983 19.5543 41.9473 16.1043L46.5434 4.02609C47.6924 1.72613 49.9905 0 52.8642 0C55.7379 0 58.036 1.72613 59.185 4.02609L63.7834 16.1043C64.9325 19.5543 67.8039 22.4304 71.2533 23.5804L83.8949 28.7564C86.7663 29.9064 87.9153 32.2064 87.9153 35.0825C87.9153 37.9562 86.1929 40.2585 83.8949 40.8323L71.8266 46.0084C68.3795 47.1584 65.5058 50.0345 64.3568 53.4844L59.7607 65.5627C58.036 67.8626 55.7379 69.5864 52.8642 69.5864ZM52.8642 3.45226C51.7152 3.45226 50.5661 4.60224 49.9905 5.75222L45.3944 17.8281C43.6697 21.8542 40.2226 25.3042 35.6265 27.0303L23.5582 32.2064C22.4092 32.2064 21.8358 33.3563 21.8358 35.0825C21.8358 36.8063 22.4092 37.3824 23.5582 37.9562L35.6265 42.5585C40.2226 44.2823 43.6697 47.7345 45.3944 51.7606L49.9905 63.8365C51.1418 66.1365 54.5889 66.1365 55.7379 63.8365L60.9097 51.7606C62.6321 47.1584 66.0815 43.7085 70.6776 41.9823L82.7459 37.3824C83.8949 36.8063 84.4682 35.6563 84.4682 34.5063C84.4682 33.3563 83.8949 32.2064 82.7459 31.6302L70.6776 27.0303C66.0815 25.3042 62.6321 21.8542 60.9097 17.2543L55.7379 5.75222C55.1622 4.60224 54.5889 3.45226 52.8642 3.45226Z" fill="#26222C"/>
</g>
<path d="M536.12 130.545L540.716 142.624C542.44 146.647 545.312 149.524 549.335 151.25L561.403 155.85C565.426 157.576 565.426 163.326 561.403 165.052L549.335 169.652C545.312 171.378 542.44 174.254 540.716 178.278L536.12 190.356C534.395 194.382 528.65 194.382 526.925 190.356L522.329 178.278C520.604 174.254 517.731 171.378 513.708 169.652L501.642 165.052C497.619 163.326 497.619 157.576 501.642 155.85L513.708 151.25C517.731 149.524 520.604 146.647 522.329 142.624L526.925 130.545C528.65 126.519 534.971 126.519 536.12 130.545Z" fill="#D5B4FF"/>
<path d="M532.098 195.532C529.224 195.532 526.926 193.806 525.777 191.506L521.181 179.43C520.03 175.978 517.158 173.104 513.709 171.951L501.067 166.778C498.196 165.625 497.047 163.325 497.047 160.452C497.047 157.576 498.769 155.276 501.067 154.126L513.135 149.523C516.583 148.373 519.456 145.497 520.605 142.047L525.201 129.972C526.35 127.095 528.651 125.945 531.522 125.945C534.396 125.945 536.694 127.669 537.843 129.972L542.441 142.047C543.59 145.497 546.464 148.373 549.911 149.523L561.977 154.126C564.851 155.276 566 157.576 566 160.452C566 163.325 564.275 165.625 561.977 166.778L549.911 171.378C546.464 172.528 543.59 175.404 542.441 178.854L537.843 190.93C537.27 193.806 534.396 195.532 532.098 195.532ZM532.098 129.395C530.949 129.395 529.8 129.972 529.224 131.121L524.628 143.197C522.903 147.8 519.456 151.25 514.86 152.973L502.792 157.576C501.643 158.149 501.067 159.299 501.067 160.452C501.067 161.602 501.643 162.752 502.792 163.325L514.86 167.928C519.456 169.652 522.903 173.104 524.628 177.704L529.224 189.78C530.373 192.082 533.823 192.082 534.972 189.78L539.568 177.704C541.292 173.104 544.74 169.652 549.336 167.928L561.404 163.325C562.553 162.752 563.126 161.602 563.126 160.452C563.126 159.299 562.553 158.149 561.404 157.576L549.336 152.973C544.74 151.25 541.292 147.8 539.568 143.197L534.396 131.121C534.396 129.972 533.247 129.395 532.098 129.395Z" fill="#26222C"/>
<path d="M28.1575 68.4351L31.6046 77.0611C32.7536 79.9372 35.0517 81.6634 37.3497 82.8134L45.3953 86.2633C48.269 87.4133 48.269 91.4393 45.3953 92.5893L36.7764 96.0393C33.9027 97.1916 32.1803 99.4915 31.0289 101.791L27.5819 110.417C26.4328 113.294 22.4101 113.294 21.2611 110.417L17.814 101.791C16.6649 98.9154 14.3669 97.1916 12.0665 96.0393L3.44765 92.5893C0.576254 91.4393 0.576254 87.4133 3.44765 86.2633L12.0665 82.8134C14.9402 81.6634 16.6649 79.3634 17.814 77.0611L21.2611 68.4351C22.9858 65.5614 27.0085 65.5614 28.1575 68.4351Z" fill="#D5B4FF"/>
<path d="M24.7076 113.868C22.4095 113.868 20.6871 112.718 20.1115 110.418L16.6644 101.792C15.5153 99.4921 13.7906 97.766 12.0659 97.1921L3.44708 93.7399C1.14903 93.166 0 91.4399 0 89.14C0 86.84 1.14903 85.1139 3.44708 84.5401L11.4926 81.0878C13.7906 79.9378 15.5153 78.214 16.0887 76.4879L19.5381 67.8619C20.1115 66.1358 22.4095 64.412 24.1342 64.412C26.4323 64.412 28.157 65.5619 28.7303 67.8619L32.1797 76.4879C33.3287 78.7878 35.0511 80.514 36.7758 81.0878L45.9704 84.5401C47.6927 85.1139 49.4174 87.4138 49.4174 89.14C49.4174 91.4399 48.2684 93.166 45.9704 93.7399L37.3492 97.1921C35.0511 98.3421 33.3287 100.066 32.7531 101.792L29.306 110.418C28.7303 112.718 27.0079 113.868 24.7076 113.868ZM24.7076 67.8619C24.7076 67.8619 23.5585 67.8619 22.9852 69.0119L19.5381 77.6379C18.3867 80.514 15.5153 83.3877 12.6416 84.5401L4.02276 87.99C2.87373 88.5638 2.87373 89.14 2.87373 89.7138C2.87373 90.2899 2.87373 90.8661 4.02276 91.4399L12.6416 94.8898C15.5153 96.0398 18.3867 98.9159 19.5381 101.792L23.5585 109.268C24.1342 110.418 24.7076 110.418 25.2832 110.418C25.2832 110.418 26.4323 110.418 27.0079 109.268L30.455 100.642C31.604 97.766 34.4778 94.8898 37.3492 93.7399L45.9704 90.2899C45.9704 90.2899 45.9704 89.7138 45.9704 89.14C45.9704 88.5638 45.9704 87.99 44.8213 87.4138L36.2001 83.9639C33.3287 82.8139 30.455 79.9378 29.306 77.0617L26.4323 69.0119C25.8589 67.8619 25.2832 67.8619 24.7076 67.8619Z" fill="#26222C"/>
</svg>
