<svg width="374" height="374" viewBox="0 0 374 374" fill="none" xmlns="http://www.w3.org/2000/svg">
<path d="M210.362 174.359H362.871C369.3 174.359 374.384 168.822 373.71 162.466C364.816 76.8868 296.934 8.96323 211.408 0.0601229C205.053 -0.614308 199.522 4.47318 199.522 10.9065V163.513C199.522 169.496 204.379 174.359 210.362 174.359Z" fill="#B04190"/>
<path d="M174.252 174.358V21.6781C174.252 15.2448 168.721 10.1573 162.366 10.8317C76.8397 19.8088 8.95815 87.7323 0.0605443 173.311C-0.610392 179.667 4.47396 185.205 10.9033 185.205H163.412C169.392 185.205 174.252 180.342 174.252 174.358Z" fill="#F59F00"/>
<mask id="mask0_366_581" style="mask-type:luminance" maskUnits="userSpaceOnUse" x="188" y="198" width="176" height="177">
<path d="M188.301 198.866H363.213V374.616H188.301V198.866Z" fill="white"/>
</mask>
<g mask="url(#mask0_366_581)">
<path d="M188.68 210.487V363.093C188.68 369.527 194.214 374.614 200.569 373.94C286.092 365.037 353.977 297.113 362.871 211.534C363.545 205.178 358.461 199.641 352.032 199.641H199.523C193.54 199.641 188.68 204.504 188.68 210.487Z" fill="#009EE2"/>
</g>
<mask id="mask1_366_581" style="mask-type:luminance" maskUnits="userSpaceOnUse" x="-1" y="198" width="176" height="177">
<path d="M-0.00489086 198.866H174.906V374.616H-0.00489086V198.866Z" fill="white"/>
</mask>
<g mask="url(#mask1_366_581)">
<path d="M163.411 199.641H10.9023C4.47298 199.641 -0.61137 205.178 0.0595661 211.534C8.95717 297.113 76.8388 365.037 162.365 373.94C168.72 374.614 174.251 369.527 174.251 363.093V210.487C174.251 204.504 169.391 199.641 163.411 199.641Z" fill="#E5007E"/>
</g>
<path d="M274.879 87.2842C268.749 87.2842 263.815 92.1469 263.516 98.2075L275.701 94.9154C276.674 94.6906 277.646 94.9154 278.317 95.5868C278.991 96.2612 279.29 97.2344 278.991 98.2075L275.852 110.027C281.758 109.577 286.467 104.715 286.467 98.7311C286.316 92.4456 281.235 87.2842 274.879 87.2842Z" fill="white"/>
<path d="M271.59 115.335L276.376 97.6059L258.58 102.321L262.246 105.985L241.985 126.258L236.153 124.611L222.097 138.826L230.844 141.367L232.115 142.639L234.734 151.391L248.864 137.179L247.368 132.242L267.927 111.67L271.59 115.335Z" fill="white"/>
<path d="M274.879 70.6025C259.328 70.6025 246.768 83.2442 246.768 98.8054C246.768 104.192 248.34 109.202 251.03 113.541L256.936 107.632C255.591 104.94 254.843 101.947 254.843 98.8054C254.843 87.7343 263.889 78.6833 274.953 78.6833C286.017 78.6833 295.063 87.7343 295.063 98.8054C295.063 109.877 286.017 118.927 274.953 118.927C271.888 118.927 269.047 118.179 266.505 116.984L260.599 122.894C264.788 125.438 269.721 126.931 274.953 126.931C290.505 126.931 303.062 114.29 303.062 98.8054C302.988 83.2442 290.354 70.6025 274.879 70.6025Z" fill="white"/>
<path d="M274.88 55.4154C250.957 55.4154 231.518 74.8661 231.518 98.8038C231.518 108.452 234.734 117.207 240.117 124.463L245.799 118.778C241.908 113.093 239.591 106.21 239.591 98.8038C239.591 79.2792 255.441 63.4192 274.954 63.4192C294.466 63.4192 310.316 79.2792 310.316 98.8038C310.316 118.328 294.466 134.188 274.954 134.188C267.702 134.188 260.975 131.943 255.293 128.202L249.609 133.887C256.712 139.048 265.459 142.192 274.954 142.192C298.876 142.192 318.315 122.741 318.315 98.8038C318.164 74.8661 298.729 55.4154 274.88 55.4154Z" fill="white"/>
<path d="M248.341 267.341L222.248 247.669L222.697 239.813L246.993 258.216L268.598 229.117L273.833 233.007L248.341 267.341Z" fill="white"/>
<path d="M256.038 262.78C256.038 267.418 252.301 271.157 247.666 271.157C243.031 271.157 239.292 267.418 239.292 262.78C239.292 258.143 243.031 254.401 247.666 254.401C252.301 254.401 256.038 258.143 256.038 262.78Z" fill="white"/>
<path d="M281.235 231.06C281.235 235.698 277.496 239.44 272.861 239.44C268.226 239.44 264.486 235.698 264.486 231.06C264.486 226.422 268.226 222.684 272.861 222.684C277.496 222.607 281.235 226.422 281.235 231.06Z" fill="white"/>
<path d="M230.921 243.78C230.921 248.417 227.181 252.156 222.546 252.156C217.911 252.156 214.175 248.417 214.175 243.78C214.175 239.142 217.911 235.4 222.546 235.4C227.108 235.326 230.921 239.142 230.921 243.78Z" fill="white"/>
<path d="M214.024 261.508H230.921V309.907H214.024V261.508Z" fill="white"/>
<path d="M238.919 278.489H255.816V309.384H238.919V278.489Z" fill="white"/>
<path d="M264.413 249.238H281.309V309.832H264.413V249.238Z" fill="white"/>
<path d="M133.657 236.824V227.921C133.657 225.602 131.715 223.659 129.397 223.659H92.8372C92.6895 223.659 92.6156 223.733 92.5387 223.733C92.1663 223.733 91.7908 223.807 91.4184 223.958C91.2676 224.032 91.1199 224.032 90.9691 224.105C90.5967 224.256 90.2981 224.481 89.9965 224.78C89.9227 224.854 89.8488 224.928 89.7718 225.005C89.7718 225.005 89.698 225.005 89.698 225.079L70.1854 245.801C70.0377 245.949 69.9607 246.174 69.813 246.325C69.6622 246.55 69.4375 246.848 69.2898 247.147C69.139 247.446 69.139 247.818 69.0651 248.12C69.0651 248.268 68.9143 248.493 68.9143 248.718V303.325C68.9143 305.721 70.8594 307.59 73.1769 307.59H129.32C131.638 307.59 133.583 305.721 133.583 303.325V293.824C130.742 294.2 127.828 294.049 125.061 293.526V299.063H77.5134V252.983H92.7634C95.0809 252.983 97.026 251.037 97.026 248.718V232.26H125.061V237.271C127.975 236.599 130.816 236.525 133.657 236.824Z" fill="white"/>
<path d="M102.707 258.74C102.033 261.509 101.809 264.425 102.033 267.267H88.6515C86.334 267.267 84.3919 265.324 84.3919 263.005C84.3919 260.683 86.334 258.74 88.6515 258.74H102.707Z" fill="white"/>
<path d="M105.997 280.06H88.6513C86.3338 280.06 84.3918 278.114 84.3918 275.795C84.3918 273.476 86.3338 271.533 88.6513 271.533H102.633C103.304 274.449 104.428 277.365 105.997 280.06Z" fill="white"/>
<path d="M117.659 290.907C116.911 292.028 115.566 292.854 114.07 292.854H88.6515C86.334 292.854 84.3919 290.907 84.3919 288.588C84.3919 286.269 86.334 284.323 88.6515 284.323H109.063C111.528 287.092 114.519 289.337 117.659 290.907Z" fill="white"/>
<path d="M156.385 290.607L145.619 275.422C144.422 277.217 142.926 278.788 141.058 280.134C139.19 281.479 137.171 282.305 135.152 282.828L145.918 298.014C147.189 299.809 149.131 300.705 151.15 300.705C152.421 300.705 153.692 300.333 154.815 299.507C157.73 297.564 158.404 293.524 156.385 290.607Z" fill="white"/>
<path d="M130.668 287.84C129.397 287.84 128.126 287.766 126.855 287.542C120.949 286.495 115.791 283.276 112.276 278.34C108.838 273.403 107.416 267.493 108.463 261.584C109.509 255.674 112.725 250.513 117.659 246.996C127.751 239.814 141.806 242.21 148.984 252.382C152.421 257.318 153.843 263.228 152.797 269.138C151.751 275.048 148.534 280.209 143.601 283.726C139.788 286.421 135.303 287.84 130.668 287.84ZM130.591 251.409C127.828 251.409 124.987 252.234 122.592 253.952C119.527 256.124 117.508 259.339 116.911 263.006C116.314 266.671 117.136 270.336 119.302 273.403C121.472 276.47 124.685 278.491 128.351 279.088C132.013 279.763 135.676 278.863 138.741 276.695C141.806 274.524 143.825 271.309 144.423 267.644C145.02 263.977 144.198 260.312 142.031 257.245C139.264 253.429 134.928 251.409 130.591 251.409Z" fill="white"/>
<path d="M73.6263 86.6864C72.8015 87.5086 71.3827 87.5086 70.5609 86.6864L63.9069 80.0283C63.0852 79.2061 63.0852 77.7833 63.9069 76.961C64.7287 76.1388 66.1506 76.1388 66.9723 76.961L73.6263 83.6191C74.5219 84.5153 74.5219 85.8641 73.6263 86.6864Z" fill="white"/>
<path d="M61.2137 110.624C60.7674 111.074 60.0934 111.372 59.3455 111.221L49.9247 109.876C48.7306 109.725 47.9088 108.604 48.0566 107.406C48.2074 106.211 49.3277 105.389 50.5249 105.536L59.9426 106.882C61.1398 107.033 61.9616 108.154 61.8139 109.352C61.8139 109.876 61.5892 110.325 61.2137 110.624Z" fill="white"/>
<path d="M65.1004 136.881C64.9527 137.031 64.8019 137.179 64.5772 137.253L56.0551 141.669C55.0087 142.193 53.6637 141.817 53.1405 140.77C52.6173 139.723 52.9897 138.377 54.0361 137.854L62.5614 133.441C63.6078 132.917 64.9527 133.29 65.4759 134.337C65.9253 135.236 65.7745 136.206 65.1004 136.881Z" fill="white"/>
<path d="M150.925 92.5228C150.777 92.6706 150.553 92.8215 150.328 92.8954L141.732 97.1606C140.685 97.6842 139.337 97.2345 138.814 96.1875C138.291 95.1404 138.74 93.7916 139.787 93.268L148.386 89.0059C149.432 88.4823 150.777 88.932 151.3 89.979C151.824 90.8013 151.599 91.8483 150.925 92.5228Z" fill="white"/>
<path d="M123.79 78.1586C123.116 78.83 122.069 78.9809 121.248 78.5312C120.201 78.0077 119.752 76.6619 120.349 75.6149L124.91 66.7857C125.433 65.7386 126.778 65.2921 127.828 65.8895C128.874 66.413 129.32 67.7588 128.723 68.8059L124.162 77.6351C124.088 77.8599 123.937 78.0077 123.79 78.1586Z" fill="white"/>
<path d="M79.4552 164.11C78.7842 164.784 77.8117 164.932 76.913 164.56C75.8666 164.036 75.3434 162.687 75.9435 161.64L80.1292 153.039C80.6524 151.918 81.9974 151.468 83.0438 152.066C84.0902 152.589 84.6134 153.935 84.0163 154.982L79.8307 163.586C79.7568 163.734 79.606 163.959 79.4552 164.11Z" fill="white"/>
<path d="M97.549 74.3443C97.2504 74.643 96.8011 74.8678 96.3518 74.9417C95.1545 75.0926 94.0343 74.2703 93.8834 73.0724L92.5385 63.6458C92.3908 62.4509 93.2125 61.3268 94.4097 61.179C95.6039 61.0281 96.7272 61.8503 96.875 63.0483L98.2199 72.4749C98.2199 73.1463 97.9952 73.8207 97.549 74.3443Z" fill="white"/>
<path d="M76.3158 89.9789C68.9909 97.3084 64.5774 106.285 63.8326 115.336C63.0078 125.213 66.5226 134.337 73.9244 141.744C82.2957 150.123 95.2313 155.731 107.791 156.406L109.361 156.48C110.857 156.48 112.349 156.406 113.919 156.332C115.639 156.332 116.911 156.631 118.108 157.154V157.379L120.127 158.426C121.546 159.698 123.34 160.369 125.134 160.221C126.928 160.147 128.649 159.322 129.843 158.05L144.422 143.465L144.573 143.314C146.441 141.069 146.74 138.002 145.395 135.237C145.244 134.935 145.096 134.636 144.871 134.411L144.348 133.666C143.003 131.646 142.628 129.998 142.628 128.129C144.05 113.991 138.291 97.758 128.35 87.66C113.697 72.998 92.3906 73.8942 76.3158 89.9789ZM121.696 94.1672C129.769 102.322 134.555 115.937 133.358 127.381V127.904C133.432 130.673 133.807 134.337 136.423 138.378L124.537 150.197C120.425 147.503 116.612 147.13 113.697 147.13H113.322C112.5 147.204 111.678 147.278 110.857 147.278H109.361C98.8198 147.056 87.4539 142.341 80.4276 135.311C75.0447 129.85 72.4286 123.266 73.0257 116.159C73.5489 109.279 77.0636 102.322 82.8959 96.4861C95.0066 84.294 111.004 83.3948 121.696 94.1672Z" fill="white"/>
<path d="M134.032 165.382L151.525 147.952C152.646 146.831 152.572 144.958 151.374 143.763L150.851 143.24C149.657 142.042 147.786 141.968 146.666 143.089L129.172 160.519C128.049 161.64 128.126 163.513 129.32 164.708L129.843 165.231C131.04 166.429 132.908 166.503 134.032 165.382Z" fill="white"/>
<path d="M147.561 154.011L148.46 154.907C149.879 156.33 149.879 158.498 148.608 159.77L145.918 162.465C144.647 163.733 142.403 163.66 141.058 162.314L140.163 161.415L147.561 154.011Z" fill="white"/>
<path d="M114.52 104.562C111.753 105.76 110.857 108.979 111.303 111.596C111.679 113.915 112.501 116.157 113.396 118.254C112.276 119.748 111.156 121.171 109.958 122.369L109.734 122.59C109.586 122.741 109.509 122.815 109.361 122.966C109.211 123.117 108.986 123.339 108.838 123.49C107.567 124.688 106.219 125.809 104.726 126.93C103.231 126.332 101.735 125.882 100.316 125.436C96.8752 124.312 94.1853 124.611 92.314 126.406C90.2981 128.278 90.0735 131.269 91.8678 133.44C94.0345 136.057 97.2506 136.507 101.362 134.712C101.584 134.635 101.886 134.561 102.184 134.41C102.409 134.262 102.707 134.111 102.932 133.963L103.231 133.812C103.978 133.44 104.726 132.99 105.548 132.393C108.613 133.739 111.827 135.46 115.492 137.628C121.023 140.994 126.255 145.108 130.967 149.82C131.041 149.897 131.191 149.971 131.265 150.122L131.638 150.421L137.021 145.034L136.722 144.659C136.648 144.585 136.574 144.434 136.424 144.36C131.638 139.722 127.526 134.487 124.162 128.95C121.995 125.359 120.275 122.144 118.93 119.15C122.368 113.989 123.116 110.026 121.174 106.958C119.826 104.864 117.136 103.368 114.52 104.562ZM117.209 111.147C117.136 111.744 116.911 112.345 116.612 113.093C116.462 112.569 116.314 112.043 116.163 111.519C115.938 110.774 115.938 109.425 116.237 109.053C116.237 109.053 116.314 108.979 116.539 108.979C117.286 109.2 117.36 110.472 117.209 111.147ZM115.64 123.416C116.612 125.51 117.733 127.604 118.856 129.624C120.5 132.393 122.294 135.158 124.239 137.779C119.678 134.41 114.892 131.567 109.885 129.248C110.408 128.802 110.931 128.278 111.528 127.755C111.904 127.453 112.202 127.08 112.574 126.782L113.024 126.332C113.919 125.359 114.818 124.386 115.64 123.416ZM99.5681 130.296C98.8203 130.597 98.2201 130.819 97.623 130.896C96.949 131.044 95.6779 130.97 95.5302 130.296C95.4563 130.074 95.5302 129.997 95.6041 129.997C95.9796 129.624 97.2506 129.698 98.0724 129.923C98.5217 129.997 99.0449 130.148 99.5681 130.296Z" fill="white"/>
</svg>
