<svg width="548" height="83" viewBox="0 0 548 83" fill="none" xmlns="http://www.w3.org/2000/svg">
<path d="M45.9518 5.10185L54.5989 43.6926L76.1862 5.10185H94.9135L94.4439 77.3259H75.6231L76.9586 35.7412H76.7716L52.7715 77.3259H45.2709L35.2862 35.7412H35.0992L22.4416 77.3259H3.71638L27.4339 5.10185H45.9518ZM130.516 5.10185L119.103 77.3259H100.28L111.718 5.10185H130.516ZM159.507 5.10185L150.577 61.423H173.148L170.664 77.3259H129.272L140.71 5.10185H159.507ZM227.297 5.10185L224.789 21.0067H202.429L200.506 33.0758H221.717L219.233 48.9787H198L195.983 61.423H218.367L215.859 77.3259H174.679L186.117 5.10185H227.297ZM261.646 3.18296C269.396 3.18296 276.661 5.16473 283.444 9.12421L273.647 23.6721C270.256 20.4753 266.357 18.8769 261.951 18.8769C259.637 18.8769 257.538 19.532 255.645 20.8424C253.771 22.1528 252.834 23.7654 252.834 25.6843C252.834 27.0879 253.505 28.3192 254.848 29.38C256.192 30.4389 258.653 31.4774 262.233 32.4896C267.091 33.9562 270.608 35.374 272.779 36.7473C274.966 38.1185 276.661 39.8102 277.865 41.8224C279.084 43.8346 279.694 46.3437 279.694 49.3539C279.694 53.6887 278.576 58.2871 276.342 63.1533C274.108 68.0012 270.443 71.8694 265.349 74.7538C260.255 77.622 254.224 79.119 247.256 79.2448C238.302 79.2448 230.238 76.5003 223.067 71.0114L233.521 55.855C238.52 60.8449 243.677 63.3399 248.99 63.3399C251.927 63.3399 254.403 62.5752 256.42 61.0478C258.436 59.5042 259.442 57.5548 259.442 55.1998C259.442 52.1288 256.373 49.7657 250.232 48.1146C242.811 46.0719 238.005 43.8873 235.818 41.5648C233.645 39.226 232.56 36.1083 232.56 32.2097C232.56 24.0392 235.357 17.1628 240.951 11.5806C246.559 5.98218 253.458 3.18296 261.646 3.18296ZM336.345 5.10185L333.837 21.0067H318.297L309.367 77.3259H290.547L299.476 21.0067H283.936L286.422 5.10185H336.345ZM409.59 34.2219C409.59 41.1753 407.573 48.3945 403.542 55.8794C399.511 63.348 393.816 69.1879 386.455 73.3968C379.097 77.6078 371.19 79.7113 362.736 79.7113C352.564 79.7113 344.307 76.7255 337.963 70.7538C331.634 64.7821 328.471 56.9159 328.471 47.1551C328.471 39.1084 330.595 31.6864 334.845 24.8891C339.112 18.0756 344.909 12.6719 352.237 8.67998C359.565 4.68805 367.129 2.69208 374.924 2.69208C381.144 2.69208 386.955 4.03287 392.362 6.71647C397.769 9.39805 401.987 13.1243 405.02 17.8951C408.067 22.6518 409.59 28.092 409.59 34.2219ZM365.62 61.5163C369.978 61.5163 373.995 60.3236 377.666 57.9362C381.355 55.5366 384.285 52.4412 386.455 48.6521C388.628 44.8468 389.714 41.0901 389.714 37.3781C389.714 32.7777 387.972 28.8811 384.488 25.6843C381.004 22.4875 376.822 20.8891 371.948 20.8891C368.181 20.8891 364.439 21.9175 360.721 23.9763C357.018 26.0189 354.026 28.7634 351.745 32.2097C349.479 35.656 348.346 39.4836 348.346 43.6926C348.346 48.8691 349.954 53.1349 353.174 56.4879C356.408 59.8388 360.557 61.5163 365.62 61.5163ZM440.009 5.10185L467.477 49.2606H467.666L474.673 5.10185H493.493L482.055 77.3259H463.259L435.789 33.0758H435.602L428.593 77.3259H409.773L421.211 5.10185H440.009ZM544.852 5.10185L542.345 21.0067H519.986L518.063 33.0758H539.274L536.79 48.9787H515.554L513.54 61.423H535.922L533.416 77.3259H492.233L503.671 5.10185H544.852Z" stroke="white" stroke-width="5.3811"/>
</svg>
