<svg width="216" height="78" viewBox="0 0 216 78" fill="none" xmlns="http://www.w3.org/2000/svg">
<path d="M81.2994 31.6652C81.2994 38.6602 79.2783 45.9141 75.2361 53.4248C71.1981 60.9314 65.4914 66.8013 58.114 71.0346C50.7347 75.268 42.8134 77.3856 34.3501 77.3856C24.151 77.3856 15.8773 74.3854 9.52676 68.385C3.17423 62.3846 0 54.4765 0 44.6606C0 36.5792 2.13109 29.1215 6.39735 22.2895C10.6616 15.4535 16.4661 10.0278 23.8128 6.01671C31.1576 2.00557 38.7427 0 46.5662 0C52.7863 0 58.6071 1.34927 64.0306 4.04375C69.452 6.74026 73.6837 10.4803 76.7275 15.2619C79.7754 20.0394 81.2994 25.5078 81.2994 31.6652ZM37.235 59.0991C41.5971 59.0991 45.6229 57.8986 49.3126 55.4956C53.0002 53.0885 55.9341 49.9762 58.114 46.1607C60.292 42.3412 61.382 38.5685 61.382 34.8447C61.382 30.2262 59.6319 26.3129 56.1337 23.1048C52.6396 19.8926 48.4569 18.2866 43.5835 18.2866C39.8021 18.2866 36.0493 19.3138 32.329 21.3683C28.6068 23.4228 25.6078 26.1845 23.332 29.6514C21.0542 33.1143 19.9174 36.9624 19.9174 41.1957C19.9174 46.3931 21.535 50.6753 24.7745 54.0444C28.0119 57.4155 32.1661 59.0991 37.235 59.0991Z" fill="white"/>
<path d="M111.414 2.40455L105.449 40.7142C104.872 44.1832 104.585 47.006 104.585 49.1849C104.585 52.8434 105.369 55.6174 106.94 57.5088C108.515 59.4002 111.227 60.3459 115.073 60.3459C119.755 60.3459 123.331 58.8254 125.798 55.7804C128.269 52.7313 129.987 47.9355 130.948 41.3909L137.012 2.40455H155.869L149.325 44.1791C148.042 52.6477 145.829 59.0965 142.684 63.5255C139.542 67.9565 135.357 71.293 130.125 73.537C124.897 75.7811 119.013 76.9041 112.473 76.9041C103.623 76.9041 96.8223 74.9964 92.0753 71.1809C87.3322 67.3613 84.9607 61.793 84.9607 54.476C84.9607 53.1287 85.0219 51.6531 85.1482 50.049C85.2786 48.447 87.7479 32.5655 92.5561 2.40455H111.414Z" fill="white"/>
<path d="M194.355 2.71785C200.895 2.71785 206.139 4.25871 210.083 7.34044C214.028 10.4222 216 14.8491 216 20.6212C216 26.7847 214.17 32.2266 210.515 36.943C206.858 41.6552 202.174 44.525 196.466 45.5522L214.558 75.2934H191.079L177.706 47.3785H177.518L173.093 75.2934H154.235L165.677 2.71785H194.355ZM179.441 35.2554H182.041C186.462 35.2554 189.891 34.3259 192.326 32.4671C194.764 30.6042 195.985 27.8751 195.985 24.2818C195.985 19.5328 192.073 17.1563 184.25 17.1563H182.326L179.441 35.2554Z" fill="white"/>
</svg>
