<svg width="636" height="147" viewBox="0 0 636 147" fill="none" xmlns="http://www.w3.org/2000/svg">
<path d="M635.967 41.0211C635.96 28.3969 625.857 17.1292 611.761 12.5425C588.372 3.20653 562.41 -4.72935 538.31 8.07496C532.945 6.33209 524.513 2.99158 518.92 1.76576C510.185 -0.436071 500.472 1.05409 491.621 1.45495C482.975 1.74833 474.099 2.21891 465.41 2.62848C441.901 1.17899 454.421 8.73145 436.346 1.64957C425.226 0.156506 404.45 -0.296641 395.575 4.78674C388.975 8.89121 391.216 20.3593 393.014 29.5762C396.117 54.2437 395.026 76.3492 383.73 90.7714C381.082 80.6163 381.673 70.0225 382.232 59.7076C382.953 49.1487 382.76 38.3196 383.548 27.7811C383.762 22.779 386.636 15.8366 380.79 12.3741C375.742 10.8374 356.151 2.5762 350.702 3.1862C339.793 5.93413 318.904 0.00545712 314.349 10.9623C314.219 9.98341 289.918 2.34381 289.657 2.00395C283.702 1.71928 276.554 1.82676 269.845 1.98652C256.382 3.34597 252.052 3.13101 252.699 13.7074C252.72 14.3638 252.731 15.029 252.72 15.2788L249.199 57.622C240.373 41.8112 232.933 24.7252 222.133 9.93113L198.736 1.83838C182.378 2.46 166.204 5.17889 149.621 4.59212C145.42 4.8245 142.638 5.09756 141.199 8.07496C140.854 7.98782 123.473 1.87324 123.086 1.84709C112.638 -0.87179 81.6567 -2.67567 82.5503 12.1591C80.1722 22.0586 77.1997 32.0104 74.6035 41.8896C73.4743 37.1897 71.8561 31.1187 69.457 26.7441C68.0428 24.3679 66.4774 22.0615 64.7642 19.8219C63.2586 18.8343 39.8582 10.9914 38.2963 10.6167C31.018 9.58546 22.7441 12.8127 15.4235 12.9347C9.43624 14.2593 -6.46423 12.438 2.87202 20.7108C14.8818 51.1152 25.9171 82.2778 36.0414 113.252C38.6375 121.632 39.8547 132.017 48.322 136.504C48.322 136.531 71.4727 144.504 71.4938 144.527C76.6544 145.556 82.7719 145.495 88.4672 146.259C103.953 147.485 118.101 149.059 123.258 134.041C138.216 138.201 156.924 146.979 174.562 145.416C178.203 145.504 182.639 145.443 184.296 142.349C188.563 132.522 185.59 121.132 191.113 111.491C192.633 109.075 195.862 107.279 196.745 110.905C202.258 119.012 205.262 130.355 213.479 136.478L236.869 144.583C237.334 144.757 237.823 144.83 238.333 144.806C242.403 144.237 245.819 141.579 249.192 139.714C249.459 139.473 250.064 139.235 250.311 139.032L258.863 141.989C259.165 142.024 268.596 145.553 268.888 145.26C279.934 144.086 291.251 142.744 302.466 142.256C315.847 141.065 342.523 144.928 350.976 134.677C380.578 146.244 404.82 152.809 434.302 135.86C434.988 136.868 435.991 137.568 437.307 137.963C442.133 139.171 461.805 147.836 466.902 146.413C489.374 145.809 511.828 143.517 534.387 142.912C536.336 142.628 538.426 141.989 539.274 140.4C546.158 143.072 554.277 145.355 561.932 145.649C587.992 148.315 617.196 137.396 624.155 115.201C629.238 100.694 626.49 83.4252 613.911 72.0007C605.63 63.7308 584.277 61.3663 580.432 51.1501C580.242 50.0579 580.404 49.0035 580.917 47.9839L598.651 54.1246C606.393 55.6351 619.423 49.6919 627.901 48.3063C629.924 47.7108 632.056 47.4436 633.822 46.3601V46.3688C635.862 45.1546 636.108 42.9499 635.967 41.0211ZM310.296 84.1253C310.683 74.4204 311.383 64.6922 312.157 55.0716C312.104 65.0524 312.899 74.9897 314.549 84.8805C313.364 84.4768 309.994 85.5661 310.296 84.1253ZM108.448 77.0347C105.36 88.5406 101.374 99.8605 98.6407 111.439C96.5265 118.265 95.1827 132.107 85.2766 133.812C75.7785 135.377 64.7713 133.492 55.618 132.798C53.9364 132.647 51.7202 132.629 50.3201 132.374C44.8288 127.956 43.4147 119.648 41.3075 112.328C30.8702 80.8283 20.1444 49.1603 7.40647 18.3027C12.1977 17.8409 19.5851 16.9142 24.3025 16.4466C28.0947 16.0283 33.0477 14.4277 36.6992 14.8635C40.6603 17.7334 42.3734 22.9504 43.9002 27.2059C47.9386 42.7988 51.7202 58.4818 58.5272 73.4531C60.8736 77.2293 63.7159 87.8027 68.3594 88.9937C75.7996 85.0751 73.601 69.0901 75.6378 61.9734C77.8364 47.705 82.5608 33.8608 86.1068 19.8423C87.6792 16.0486 87.549 8.36254 91.0844 6.49476C98.5879 3.99954 115.808 3.99954 121.58 6.12295C122.914 6.61095 124.412 7.42139 124.521 8.70821C124.574 19.3252 121.084 29.8638 118.393 40.1903C115.213 52.4776 111.938 64.7997 108.448 77.0347ZM233.418 122.643C227.515 124.83 223.308 127.656 218.179 130.622C217.296 131.084 216.329 131.61 215.393 131.999C213.831 131.183 211.988 127.166 210.493 124.714C205.118 117.792 196.998 93.2957 186.487 93.7024C180.718 95.178 174.365 94.8498 168.677 96.735C156.241 102.617 160.118 118.448 157.089 128.33C156.596 129.611 156.973 132.301 155.281 132.728C150.848 132.946 146.423 132.891 142.005 132.56C134.906 131.918 127.156 131.744 122.266 127.247C123.719 119.032 125.119 110.434 126.452 102.164C131.676 71.1002 136.327 39.6791 146.36 9.42569C152.671 8.42354 161.416 9.4896 167.973 8.67045C176.651 8.01396 185.193 7.24129 193.797 6.46571C198.17 5.57975 198.406 11.9412 200.699 14.268C209.297 29.2886 217.458 44.4691 225.187 59.8064C231.367 71.8177 236.697 84.0265 242.6 96.1395C245.217 101.728 249.92 108.47 248.844 114.094C245.21 118.013 238.811 120.333 233.418 122.643ZM321.807 125.513C308.077 132.185 289.942 128.214 274.724 129.928C265.926 130.471 257.153 131.386 248.397 132.365C248.626 130.695 248.752 127.389 248.946 125.763C251.584 93.1243 255.408 48.5677 258.089 15.5809C258.198 8.3393 255.925 7.23839 270.151 6.43666C274.661 6.92467 284.567 4.62407 285.862 7.61891C285.732 14.4452 285.323 21.2714 284.849 28.0919C283.557 46.9701 281.391 65.9152 281.285 84.8341C284.849 99.021 317.392 81.8218 320.945 93.4613C320.477 100.421 320.98 107.332 322.454 114.193C322.538 117.17 324.758 123.506 321.807 125.513ZM374.605 133.652C305.407 133.013 318.254 54.6533 318.996 15.4851C317.575 7.10767 330.474 9.05388 337.862 8.49325C343.624 9.51574 357.122 3.91821 355.556 11.95C354.068 24.336 354.22 36.7482 353.593 49.1894C353.252 63.876 350.104 83.5385 361.888 95.5963C398.973 115.221 401.151 55.4782 399.522 36.4112C394.558 8.25216 391.121 4.19997 428.607 5.32994C432.698 5.33865 434.605 4.97555 436.061 7.53467C441.208 18.2127 440.733 30.2705 440.68 41.6282C442.112 79.2104 430.795 131.317 374.605 133.652ZM511.184 130.035V129.992C511.173 130.32 510.621 130.294 510.333 130.39C509.597 130.521 508.859 130.611 508.113 130.666C486.728 130.657 465.213 133.527 443.966 133.847C442.358 134.009 440.754 133.989 439.15 133.786C436.997 129.333 438.109 122.715 438.26 117.719C440.444 82.8907 440.842 47.9171 449.337 13.5854C450.199 10.9013 448.908 8.23473 452.817 7.51434C467.644 6.38728 483.432 6.70681 498.189 5.49842C504.405 5.38222 515.43 3.61611 519.771 7.35458C519.76 10.1722 520.158 12.955 520.158 15.8947C520.225 17.9222 520.19 20.3099 520.084 22.3898C517.646 25.5037 515.588 28.7774 513.914 32.2167C513.136 32.3503 512.31 32.4752 511.455 32.5653C503.529 33.4599 495.196 33.5935 487.27 34.1106C484.199 34.7497 478.634 33.123 477.223 36.1527C477.093 41.0124 473.572 53.044 477.557 56.5182C483.221 59.0424 490.51 57.256 496.757 58.1187C503.498 58.0548 499.266 70.5977 498.263 73.9033C493.708 82.9488 477.308 79.0826 470.128 85.5515C467.94 88.4215 468.865 92.5986 468.608 95.9304C468.749 97.7778 468.436 99.8663 469.642 101.493C477.04 106.849 488.498 103.785 497.479 103.884C509.464 101.022 499.332 116.99 511.543 127.677C511.504 128.473 511.384 129.257 511.184 130.035ZM504.665 55.7716C504.912 52.8145 505.32 49.8284 505.71 46.8975C513.548 44.9861 509.369 55.2662 513.281 58.749L504.665 55.7716ZM504.933 94.0771C504.644 98.8758 502.555 100.741 497.493 98.8932C497.545 98.138 497.609 97.284 497.739 96.52C499.209 94.7423 502.653 94.8498 504.936 94.0771H504.933ZM520.446 133.742C520.64 133.788 520.816 133.864 520.974 133.971C520.809 133.902 520.626 133.82 520.453 133.742H520.446ZM607.111 34.7061C598.615 37.486 589.054 39.1214 580.425 41.7444C573.315 43.8678 576.689 33.7039 568.549 31.9988C555.012 27.9176 545.546 43.2549 556.381 50.6911C567.258 59.5595 585.607 61.131 592.252 73.6332C607.983 99.7298 589.557 131.264 552.933 133.094C528.477 135.653 507.233 127.578 509.031 104.706C509.386 102.039 508.394 93.4293 512.391 94.1061C519.532 94.0074 526.961 93.4845 534.092 92.8542C540.691 92.8978 539.756 101.813 544.691 104.787C557.376 111.718 572.031 93.8738 551.604 82.4027C523.338 67.5825 502.467 51.3592 525.364 23.8945C542.025 2.88701 588.027 -2.52462 603.924 21.6171C605.109 23.6534 605.971 25.7797 606.513 27.996C607.055 30.2124 607.255 32.4462 607.121 34.7061H607.111ZM521.537 89.3161C527.415 85.9379 527.999 79.5677 528.966 74.2025C532.854 76.8226 537.001 79.2394 541.026 81.5865C546.949 85.1652 554.154 88.4621 556.409 94.6552C540.807 89.1535 538.968 87.4135 521.54 89.3132L521.537 89.3161ZM555.424 99.1285C548.701 105.252 547.143 100.479 544.374 95.3087L555.424 99.1285Z" fill="white"/>
</svg>
